<svg width="149" height="49" viewBox="0 0 149 49" fill="none" xmlns="http://www.w3.org/2000/svg">
<g filter="url(#filter0_d_832_821)">
<path fill-rule="evenodd" clip-rule="evenodd" d="M12.5527 4.09787C11.1221 5.09823 9.82837 6.28098 8.70532 7.6124C13.2946 7.18633 19.1252 7.88205 25.8944 11.2667C33.123 14.8809 38.9438 15.0031 42.9948 14.2217C42.6272 13.1088 42.1644 12.0392 41.6163 11.0224C36.979 11.5115 31.034 10.8641 24.1056 7.39998C19.706 5.20018 15.8278 4.29401 12.5527 4.09787ZM38.9074 7.16665C35.2453 3.075 29.9234 0.5 24 0.5C22.2605 0.5 20.5727 0.722107 18.9637 1.13948C21.1429 1.73409 23.4579 2.60399 25.8944 3.82227C30.967 6.35853 35.3464 7.17516 38.9074 7.16665ZM43.8609 18.1281C38.9669 19.0945 32.2088 18.896 24.1056 14.8444C16.53 11.0566 10.5004 11.1043 6.4339 12.008C6.224 12.0546 6.01904 12.1036 5.81903 12.1546C5.28662 13.3125 4.86163 14.5301 4.5567 15.7945C4.88239 15.7075 5.21893 15.6248 5.56616 15.5476C10.4996 14.4513 17.4701 14.4989 25.8944 18.7111C33.4701 22.4989 39.4996 22.4512 43.5662 21.5475C43.7055 21.5166 43.8428 21.4846 43.9778 21.4516C43.9926 21.1363 44 20.819 44 20.5C44 19.6975 43.9528 18.906 43.8609 18.1281ZM43.3248 25.6723C38.4783 26.5196 31.917 26.1944 24.1056 22.2888C16.53 18.501 10.5004 18.5487 6.4339 19.4524C5.53125 19.6529 4.71924 19.8972 4.00293 20.1551C4.00098 20.2698 4 20.3848 4 20.5C4 31.5457 12.9543 40.5 24 40.5C33.2571 40.5 41.0453 34.2109 43.3248 25.6723Z" fill="url(#paint0_linear_832_821)"/>
</g>
<path d="M65.52 28.5V15.18H60.144V11.58H75.312V15.18H69.936V28.5H65.52ZM74.7949 28.5V16.692H78.9469V18.684C79.4909 17.324 80.6669 16.58 82.4749 16.452L83.6509 16.356L83.8909 19.956L81.5629 20.172C80.7149 20.252 80.0989 20.492 79.7149 20.892C79.3309 21.276 79.1389 21.852 79.1389 22.62V28.5H74.7949ZM89.1879 28.764C88.2759 28.764 87.4679 28.596 86.7639 28.26C86.0759 27.924 85.5319 27.468 85.1319 26.892C84.7479 26.3 84.5559 25.628 84.5559 24.876C84.5559 24.028 84.7799 23.356 85.2279 22.86C85.6759 22.348 86.3959 21.988 87.3879 21.78C88.3799 21.556 89.6999 21.444 91.3479 21.444H92.2599V21.108C92.2599 20.532 92.1079 20.124 91.8039 19.884C91.5159 19.644 91.0119 19.524 90.2919 19.524C89.6839 19.524 89.0119 19.62 88.2759 19.812C87.5399 20.004 86.8199 20.3 86.1159 20.7L85.0359 17.892C85.4359 17.604 85.9479 17.348 86.5719 17.124C87.1959 16.9 87.8519 16.732 88.5399 16.62C89.2279 16.492 89.8759 16.428 90.4839 16.428C92.4519 16.428 93.9079 16.852 94.8519 17.7C95.8119 18.548 96.2919 19.884 96.2919 21.708V28.5H92.3079V26.82C92.0999 27.428 91.7239 27.908 91.1799 28.26C90.6359 28.596 89.9719 28.764 89.1879 28.764ZM90.1479 25.98C90.7399 25.98 91.2359 25.788 91.6359 25.404C92.0519 25.02 92.2599 24.516 92.2599 23.892V23.46H91.3479C90.4039 23.46 89.7079 23.564 89.2599 23.772C88.8279 23.964 88.6119 24.276 88.6119 24.708C88.6119 25.076 88.7399 25.38 88.9959 25.62C89.2679 25.86 89.6519 25.98 90.1479 25.98ZM102.087 28.5L96.9034 16.692H101.391L103.959 23.388L106.671 16.692H110.871L105.591 28.5H102.087ZM116.271 28.764C114.639 28.764 113.455 28.356 112.719 27.54C111.983 26.708 111.615 25.46 111.615 23.796V11.58H115.887V23.652C115.887 24.772 116.399 25.332 117.423 25.332C117.583 25.332 117.743 25.324 117.903 25.308C118.079 25.292 118.247 25.268 118.407 25.236L118.359 28.5C117.719 28.676 117.023 28.764 116.271 28.764ZM125.818 28.764C124.506 28.764 123.362 28.516 122.386 28.02C121.41 27.524 120.65 26.812 120.106 25.884C119.562 24.956 119.29 23.86 119.29 22.596C119.29 21.316 119.562 20.22 120.106 19.308C120.65 18.38 121.41 17.668 122.386 17.172C123.362 16.676 124.506 16.428 125.818 16.428C127.13 16.428 128.274 16.676 129.25 17.172C130.226 17.668 130.978 18.38 131.506 19.308C132.05 20.22 132.322 21.316 132.322 22.596C132.322 23.86 132.05 24.956 131.506 25.884C130.978 26.812 130.226 27.524 129.25 28.02C128.274 28.516 127.13 28.764 125.818 28.764ZM125.818 25.62C126.458 25.62 126.986 25.38 127.402 24.9C127.818 24.42 128.026 23.652 128.026 22.596C128.026 21.524 127.818 20.756 127.402 20.292C126.986 19.812 126.458 19.572 125.818 19.572C125.162 19.572 124.626 19.812 124.21 20.292C123.794 20.756 123.586 21.524 123.586 22.596C123.586 23.652 123.794 24.42 124.21 24.9C124.626 25.38 125.162 25.62 125.818 25.62ZM140.135 33.084C138.951 33.084 137.839 32.972 136.799 32.748C135.775 32.524 134.895 32.156 134.159 31.644L135.263 28.764C135.871 29.132 136.591 29.42 137.423 29.628C138.271 29.836 139.039 29.94 139.727 29.94C140.703 29.94 141.431 29.732 141.911 29.316C142.407 28.916 142.655 28.284 142.655 27.42V26.316C142.319 26.892 141.815 27.348 141.143 27.684C140.471 28.02 139.751 28.188 138.983 28.188C137.927 28.188 137.007 27.948 136.223 27.468C135.439 26.972 134.823 26.284 134.375 25.404C133.943 24.524 133.727 23.492 133.727 22.308C133.727 21.124 133.943 20.092 134.375 19.212C134.823 18.332 135.439 17.652 136.223 17.172C137.007 16.676 137.927 16.428 138.983 16.428C139.783 16.428 140.511 16.604 141.167 16.956C141.839 17.292 142.327 17.74 142.631 18.3V16.692H146.807V26.916C146.807 28.98 146.231 30.524 145.079 31.548C143.927 32.572 142.279 33.084 140.135 33.084ZM140.303 25.044C141.007 25.044 141.567 24.804 141.983 24.324C142.399 23.844 142.607 23.172 142.607 22.308C142.607 21.444 142.399 20.772 141.983 20.292C141.567 19.812 141.007 19.572 140.303 19.572C139.615 19.572 139.063 19.812 138.647 20.292C138.231 20.772 138.023 21.444 138.023 22.308C138.023 23.172 138.231 23.844 138.647 24.324C139.063 24.804 139.615 25.044 140.303 25.044Z" fill="#191825"/>
<defs>
<filter id="filter0_d_832_821" x="0" y="0.5" width="48" height="48" filterUnits="userSpaceOnUse" color-interpolation-filters="sRGB">
<feFlood flood-opacity="0" result="BackgroundImageFix"/>
<feColorMatrix in="SourceAlpha" type="matrix" values="0 0 0 0 0 0 0 0 0 0 0 0 0 0 0 0 0 0 127 0" result="hardAlpha"/>
<feOffset dy="4"/>
<feGaussianBlur stdDeviation="2"/>
<feComposite in2="hardAlpha" operator="out"/>
<feColorMatrix type="matrix" values="0 0 0 0 0 0 0 0 0 0 0 0 0 0 0 0 0 0 0.25 0"/>
<feBlend mode="normal" in2="BackgroundImageFix" result="effect1_dropShadow_832_821"/>
<feBlend mode="normal" in="SourceGraphic" in2="effect1_dropShadow_832_821" result="shape"/>
</filter>
<linearGradient id="paint0_linear_832_821" x1="40" y1="43.7" x2="0.266786" y2="36.0931" gradientUnits="userSpaceOnUse">
<stop stop-color="#5D50C6"/>
<stop offset="1" stop-color="#F85E9F"/>
</linearGradient>
</defs>
</svg>
